<?xml version="1.0" encoding="utf-8"?>
<!-- Generator: Adobe Illustrator 26.0.3, SVG Export Plug-In . SVG Version: 6.00 Build 0)  -->
<svg version="1.1" id="圖層_1" xmlns="http://www.w3.org/2000/svg" xmlns:xlink="http://www.w3.org/1999/xlink" x="0px" y="0px"
	 viewBox="0 0 24 16.5" style="enable-background:new 0 0 24 16.5;" xml:space="preserve">
<style type="text/css">
	.st0{fill:#C0FF6A;}
	.st1{fill-rule:evenodd;clip-rule:evenodd;fill:#C0FF6A;}
</style>
<desc>Created with Sketch.</desc>
<g>
	<g id="_xD83D__xDD39_-Icon-Color_00000108275494550222815060000010355272383249604791_">
		<path class="st0" d="M18.6,16.5H6.4c-3.5,0-6.4-2.9-6.4-6.4C0,7,2.2,4.4,5.3,3.9C6.7,1.5,9.2,0,12,0c3.5,0,6.6,2.4,7.5,5.7
			c2.6,0.4,4.5,2.7,4.5,5.3C24,14.1,21.6,16.5,18.6,16.5z M12,1.5c-2.4,0-4.5,1.3-5.6,3.4L6.2,5.2l-0.4,0c-2.5,0.3-4.4,2.4-4.4,4.9
			c0,2.7,2.2,4.9,4.9,4.9h12.2c2.2,0,4-1.8,4-4c0-2.1-1.6-3.8-3.7-3.9l-0.6,0l-0.1-0.5C17.6,3.6,15,1.5,12,1.5z"/>
	</g>
	<g>
		<path class="st1" d="M10.8,12.3c-0.4,0.4-1,0.4-1.3,0l-2-2c-0.4-0.4-0.4-1,0-1.3c0.4-0.4,1-0.4,1.3,0l1.3,1.3l4.2-4.2
			c0.4-0.4,1-0.4,1.3,0c0.4,0.4,0.4,1,0,1.3L10.8,12.3z"/>
		<path class="st0" d="M10.1,12.6c-0.3,0-0.5-0.1-0.7-0.3l-2-2C7,10,7,9.3,7.4,8.9c0.4-0.4,1.1-0.4,1.5,0l1.2,1.2L14.3,6
			c0.4-0.4,1.1-0.4,1.5,0C15.9,6.2,16,6.5,16,6.7c0,0.3-0.1,0.5-0.3,0.7l-4.9,4.9C10.7,12.5,10.4,12.6,10.1,12.6z M8.2,8.8
			C7.9,8.8,7.7,8.9,7.6,9c-0.3,0.3-0.3,0.9,0,1.2l2,2c0.2,0.2,0.4,0.2,0.6,0.2c0.2,0,0.4-0.1,0.6-0.2l4.9-4.9
			c0.2-0.2,0.2-0.4,0.2-0.6s-0.1-0.4-0.2-0.6c-0.3-0.3-0.9-0.3-1.2,0l-4.3,4.3L8.8,9C8.6,8.9,8.4,8.8,8.2,8.8z"/>
	</g>
</g>
</svg>
