<?xml version="1.0" encoding="utf-8"?>
<!-- Generator: Adobe Illustrator 26.0.3, SVG Export Plug-In . SVG Version: 6.00 Build 0)  -->
<svg version="1.1" id="圖層_1" xmlns="http://www.w3.org/2000/svg" xmlns:xlink="http://www.w3.org/1999/xlink" x="0px" y="0px"
	 viewBox="0 0 48 48" style="enable-background:new 0 0 48 48;" xml:space="preserve">
<g>
	<path id="i-428" d="M48,34c0-4-2.6-5-4-5c-0.8,0-1-0.5-1-1l0-0.2c0-0.1,0-0.3,0-0.4c1.5-2.4,3.2-7.4-0.3-11
		C41.6,15.1,40.1,15,39,15c-1.2,0-1.9,0.4-2.4,0.7C36.3,15.9,36.2,16,36,16c-0.7,0-1.3,0.3-1.9,0.9C33.6,17.4,33,18.2,33,19
		c0,5.1,1.4,7.5,2,8.4V28c0,0.3-0.6,1-2,1c-0.4,0-0.8,0.1-1.1,0.3c-0.5-0.3-1.1-0.6-1.6-0.9c1.2,0.1,2.4,0,3.4-0.3l1.3-0.4l-0.8-1.1
		c0,0-2.1-2.9-2.1-7.6c0-5.4-3.2-9-7.9-9H24h-0.2c-4.7,0-7.9,3.6-7.9,9c0,4.6-2.1,7.5-2.1,7.6L13,27.7l1.3,0.4
		c0.7,0.2,1.5,0.3,2.5,0.3c0.3,0,0.6,0,0.9,0c-0.8,0.5-1.7,0.9-2.3,1.2C15.1,29.2,14.5,29,14,29c-0.8,0-1-0.5-1-1l0-0.2
		c0-0.1,0-0.3,0-0.4c1.5-2.4,3.3-7.5-0.3-11C11.5,15.1,10.1,15,9,15c-1.5,0-2.2,0.5-2.6,0.8C6.1,16,6.1,16,6,16
		c-0.7,0-1.3,0.3-1.9,0.9C3.6,17.4,3,18.2,3,19c0,5.1,1.4,7.5,2,8.4V28c0,0.5-0.2,1-1,1c-1.4,0-4,1-4,5v1h11.4
		C11.1,36,11,36.8,11,36.9L10.8,38h26.3L37,36.9c0,0-0.1-0.8-0.4-1.9H48V34z M2.1,33c0.3-1.8,1.6-2,1.9-2c2.2,0,3-1.8,3-3l0-1.4
		l-0.3-0.3c0,0-1.7-1.9-1.7-7.2c0.1-0.3,0.7-1,1-1c0,0,0,0,0,0c0.7,0,1.2-0.3,1.5-0.6C7.9,17.2,8.1,17,9,17c0.8,0,1.7,0.1,2.3,0.7
		c3.4,3.4,0,8.5-0.1,8.7L11,26.6l0,0.3c0,0.7,0,1,0,1.2c0,1.1,0.7,2.6,2.4,2.8c-0.5,0.6-0.9,1.3-1.3,2L2.1,33L2.1,33z M13.2,36
		c0.4-1.5,1.2-3.6,2.1-4.1c0.1-0.1,0.4-0.2,0.6-0.3c1.9-0.8,5-2.3,5-4.6v-1.6l-1.4,0.7c-0.2,0.1-1.4,0.4-2.8,0.4c-0.2,0-0.4,0-0.6,0
		C17,25,18,22.4,18,19c0-4.3,2.3-7,5.9-7H24h0.1c3.6,0,5.9,2.7,5.9,7c0,3.4,1,6,1.8,7.4c-0.2,0-0.4,0-0.6,0c-1.4,0-2.6-0.3-2.8-0.4
		L27,25.4V27c0,2.3,3.1,3.7,5,4.6c0.3,0.1,0.5,0.2,0.6,0.3c1,0.5,1.8,2.6,2.1,4.1H13.2z M35.8,33c-0.4-0.8-0.8-1.6-1.4-2.2
		c1.7-0.4,2.6-1.6,2.6-2.8l0-1.4l-0.3-0.3c0,0-1.7-1.9-1.7-7.2c0.1-0.3,0.7-1,1-1c0,0,0,0,0,0c0.7,0,1.2-0.3,1.6-0.6
		c0.4-0.2,0.7-0.4,1.4-0.4c0.8,0,1.7,0.1,2.3,0.7c3.3,3.5,0,8.5-0.1,8.7L41,26.6l0,0.3c0,0.7,0,1,0,1.2c0,1.2,0.9,2.9,3,2.9
		c0.1,0,1.5,0,1.9,2H35.8z"/>
</g>
</svg>
