<?xml version="1.0" encoding="utf-8"?>
<!-- Generator: Adobe Illustrator 26.0.3, SVG Export Plug-In . SVG Version: 6.00 Build 0)  -->
<svg version="1.1" id="圖層_1" xmlns="http://www.w3.org/2000/svg" xmlns:xlink="http://www.w3.org/1999/xlink" x="0px" y="0px"
	 viewBox="0 0 512 512" style="enable-background:new 0 0 512 512;" xml:space="preserve">
<style type="text/css">
	.st0{fill:#C0FF6A;}
</style>
<g>
	<path class="st0" d="M454.2,223.5c-4.9-30.7-17-59.8-35.2-85l30.1-30.1l-45.3-45.2l-30.1,30.1c-25.2-18.2-54.3-30.3-85-35.2V15.5
		h-64v42.6c-30.7,4.9-59.8,17-85,35.2l-30.1-30.1l-45.3,45.2l30.1,30.1c-18.2,25.2-30.3,54.3-35.2,85H16.7v64h42.6
		c4.9,30.7,17,59.8,35.2,85l-30.1,30.1l45.3,45.2l30.1-30.1c25.2,18.2,54.3,30.3,85,35.2v42.6h64v-42.6c30.7-4.9,59.8-17,85-35.2
		l30.1,30.1l45.3-45.2L419,372.5c18.2-25.2,30.3-54.3,35.2-85h42.5v-64H454.2z M256.4,423.8c-33.2,0-65.7-9.9-93.3-28.3
		c-27.6-18.5-49.2-44.7-61.9-75.4c-12.7-30.7-16-64.5-9.6-97.1c6.5-32.6,22.5-62.5,46-86s53.4-39.5,86-46
		c32.6-6.5,66.4-3.2,97.1,9.6c30.7,12.7,56.9,34.2,75.4,61.9c18.5,27.6,28.3,60.1,28.3,93.3c0,44.6-17.7,87.3-49.2,118.8
		S300.9,423.8,256.4,423.8z"/>
	<path class="st0" d="M496.4,215.8h-35.9c-5.3-27.2-16.1-53-31.5-76.1l25.4-25.4c1.5-1.5,2.3-3.5,2.3-5.7s-0.8-4.2-2.3-5.7
		l-45.2-45.3c-1.5-1.5-3.5-2.3-5.7-2.3c-2.1,0-4.2,0.8-5.7,2.3l-25.4,25.4c-23-15.5-48.9-26.2-76-31.5V15.8c0-2.1-0.8-4.2-2.3-5.7
		c-1.5-1.5-3.5-2.3-5.7-2.3h-64c-2.1,0-4.2,0.8-5.7,2.3c-1.5,1.5-2.3,3.5-2.3,5.7v35.9c-27.2,5.3-53,16.1-76.1,31.5l-25.4-25.4
		c-1.5-1.5-3.5-2.3-5.7-2.3s-4.2,0.8-5.7,2.3L58.4,103c-1.5,1.5-2.3,3.5-2.3,5.7s0.8,4.2,2.3,5.7l25.4,25.4
		c-15.5,23-26.2,48.9-31.5,76.1H16.4c-2.1,0-4.2,0.8-5.7,2.3c-1.5,1.5-2.3,3.5-2.3,5.7v64c0,2.1,0.8,4.2,2.3,5.7
		c1.5,1.5,3.5,2.3,5.7,2.3h35.9c5.3,27.2,16.1,53,31.5,76l-25.4,25.4c-1.5,1.5-2.3,3.5-2.3,5.7c0,2.1,0.8,4.2,2.3,5.7l45.2,45.2
		c1.5,1.5,3.5,2.3,5.7,2.3s4.2-0.8,5.7-2.3l25.4-25.4c23,15.5,48.9,26.2,76.1,31.5v35.9c0,2.1,0.8,4.2,2.3,5.7s3.5,2.3,5.7,2.3h64
		c2.1,0,4.2-0.8,5.7-2.3s2.3-3.5,2.3-5.7v-35.9c27.2-5.3,53-16.1,76-31.5l25.4,25.4c1.5,1.5,3.5,2.3,5.7,2.3c2.1,0,4.2-0.8,5.7-2.3
		l45.2-45.2c1.5-1.5,2.3-3.5,2.3-5.7c0-2.1-0.8-4.2-2.3-5.7L429,371.8c15.5-23,26.2-48.9,31.5-76h35.9c2.1,0,4.2-0.8,5.7-2.3
		s2.3-3.5,2.3-5.7v-64c0-2.1-0.8-4.2-2.3-5.7S498.5,215.8,496.4,215.8z M488.4,279.8h-34.6c-1.9,0-3.7,0.7-5.2,1.9
		c-1.4,1.2-2.4,2.9-2.7,4.8c-4.8,29.4-16.4,57.4-33.8,81.6c-1.1,1.5-1.6,3.4-1.5,5.3c0.2,1.9,1,3.7,2.3,5l24.4,24.4l-33.9,33.9
		L379,412.3c-1.3-1.3-3.1-2.2-5-2.3c-1.9-0.2-3.8,0.4-5.3,1.5c-24.2,17.5-52.1,29-81.6,33.8c-1.9,0.3-3.6,1.3-4.8,2.7
		c-1.2,1.4-1.9,3.3-1.9,5.2v34.6h-48v-34.6c0-1.9-0.7-3.7-1.9-5.2c-1.2-1.4-2.9-2.4-4.8-2.7c-29.4-4.8-57.4-16.4-81.6-33.8
		c-1.5-1.1-3.4-1.6-5.3-1.5c-1.9,0.2-3.7,1-5,2.3l-24.4,24.4l-33.9-33.9l24.4-24.4c1.3-1.3,2.2-3.1,2.3-5c0.2-1.9-0.4-3.8-1.5-5.3
		c-17.4-24.2-29-52.1-33.8-81.6c-0.3-1.9-1.3-3.6-2.7-4.8c-1.4-1.2-3.3-1.9-5.2-1.9H24.4v-48h34.6c1.9,0,3.7-0.7,5.2-1.9
		c1.4-1.2,2.4-2.9,2.7-4.8c4.8-29.4,16.4-57.4,33.8-81.6c1.1-1.5,1.6-3.4,1.5-5.3c-0.2-1.9-1-3.7-2.3-5l-24.4-24.4l33.9-33.9
		l24.4,24.4c1.3,1.3,3.1,2.2,5,2.3c1.9,0.2,3.8-0.4,5.3-1.5c24.2-17.4,52.1-29,81.6-33.8c1.9-0.3,3.6-1.3,4.8-2.7
		c1.2-1.4,1.9-3.3,1.9-5.2V23.8h48v34.6c0,1.9,0.7,3.7,1.9,5.2c1.2,1.4,2.9,2.4,4.8,2.7c29.4,4.8,57.4,16.4,81.6,33.8
		c1.5,1.1,3.4,1.6,5.3,1.5c1.9-0.2,3.7-1,5-2.3l24.4-24.4l33.9,33.9l-24.4,24.4c-1.3,1.3-2.2,3.1-2.3,5c-0.2,1.9,0.4,3.8,1.5,5.3
		c17.5,24.2,29,52.1,33.8,81.6c0.3,1.9,1.3,3.6,2.7,4.8c1.4,1.2,3.3,1.9,5.2,1.9h34.6V279.8z"/>
	<path class="st0" d="M368.4,255.8c0,20-5.4,39.7-15.6,56.9c-10.2,17.2-24.8,31.4-42.3,41.1c-17.5,9.7-37.3,14.5-57.4,13.9
		c-20-0.6-39.5-6.5-56.5-17.2c-1.7-1.2-2.9-3-3.3-5c-0.4-2,0-4.1,1.1-5.9c1.1-1.8,2.9-3,4.9-3.5c2-0.5,4.1-0.2,5.9,0.9
		c17.6,11.1,38.3,16.2,59,14.5s40.3-10,55.9-23.8c15.6-13.8,26.2-32.2,30.4-52.6c4.2-20.4,1.6-41.5-7.2-60.3s-23.6-34.2-42-43.9
		c-18.4-9.7-39.4-13.2-59.9-9.9c-20.5,3.3-39.4,13.1-53.9,28c-14.5,14.9-23.7,34.1-26.3,54.7l9.6-9.6c1.5-1.5,3.5-2.3,5.7-2.3
		s4.2,0.8,5.7,2.3c1.5,1.5,2.3,3.5,2.3,5.7s-0.8,4.2-2.3,5.7l-24,24c-1.5,1.5-3.5,2.3-5.7,2.3s-4.2-0.8-5.7-2.3l-24-24
		c-1.5-1.5-2.3-3.5-2.3-5.7s0.8-4.2,2.3-5.7c1.5-1.5,3.5-2.3,5.7-2.3s4.2,0.8,5.7,2.3l10.9,10.9c2.8-28.6,16.5-55.1,38.2-73.9
		s49.9-28.5,78.7-27.2c28.7,1.4,55.8,13.8,75.7,34.6C357.3,199.3,368.4,227,368.4,255.8L368.4,255.8z"/>
</g>
</svg>
