<?xml version="1.0" encoding="utf-8"?>
<!-- Generator: Adobe Illustrator 26.0.3, SVG Export Plug-In . SVG Version: 6.00 Build 0)  -->
<svg version="1.1" id="圖層_1" xmlns="http://www.w3.org/2000/svg" xmlns:xlink="http://www.w3.org/1999/xlink" x="0px" y="0px"
	 viewBox="0 0 64 64" style="enable-background:new 0 0 64 64;" xml:space="preserve">
<style type="text/css">
	.st0{fill:#231815;stroke:#231815;stroke-miterlimit:10;}
</style>
<path class="st0" d="M50.8,34.4c-0.6-0.6-1.3-0.9-2.1-0.9c-0.8,0-1.6,0.3-2.1,0.9l-2.8,2.8c0,0,0,0,0,0l-1.4,1.4
	c-0.5,0.5-1,0.8-1.6,1.1c-0.6,0.3-1.3,0.4-1.9,0.4c-0.7,0-1.3-0.1-1.9-0.4s-1.2-0.6-1.6-1.1l-9.9-9.9c-0.5-0.5-0.8-1-1.1-1.6
	c-0.3-0.6-0.4-1.3-0.4-1.9s0.1-1.3,0.4-1.9c0.3-0.6,0.6-1.2,1.1-1.6l1.4-1.4l0,0l2.8-2.8c0.3-0.3,0.5-0.6,0.7-1
	c0.2-0.4,0.2-0.8,0.2-1.1s-0.1-0.8-0.2-1.1c-0.2-0.4-0.4-0.7-0.7-1l-8.5-8.5c-0.6-0.5-1.3-0.9-2.1-0.9c-0.8,0-1.6,0.3-2.1,0.9
	L14,7.5l0,0c-3.4,3.4-5.3,7.9-5.5,12.7C8.3,25,9.9,29.6,13,33.3v3.5c-0.1,0.1-0.3,0.1-0.4,0.2l-2.7-2.7C9.7,34.1,9.5,34,9.2,34
	c-0.3,0-0.5,0.1-0.7,0.3l-4.2,4.2C4.1,38.7,4,39,4,39.2c0,0.3,0.1,0.5,0.3,0.7l2.7,2.7c-0.1,0.1-0.1,0.3-0.2,0.4H3
	c-0.3,0-0.5,0.1-0.7,0.3C2.1,43.5,2,43.7,2,44v6c0,0.3,0.1,0.5,0.3,0.7C2.5,50.9,2.7,51,3,51h3.8c0.1,0.1,0.1,0.3,0.2,0.4l-2.7,2.7
	C4.1,54.3,4,54.5,4,54.8c0,0.3,0.1,0.5,0.3,0.7l4.2,4.2C8.7,59.9,9,60,9.2,60c0.3,0,0.5-0.1,0.7-0.3l2.7-2.7
	c0.1,0.1,0.3,0.1,0.4,0.2V61c0,0.3,0.1,0.5,0.3,0.7S13.7,62,14,62h6c0.3,0,0.5-0.1,0.7-0.3S21,61.3,21,61v-3.8
	c0.1-0.1,0.3-0.1,0.4-0.2l2.7,2.7c0.2,0.2,0.4,0.3,0.7,0.3c0.3,0,0.5-0.1,0.7-0.3l4.2-4.2c0.2-0.2,0.3-0.4,0.3-0.7
	c0-0.3-0.1-0.5-0.3-0.7l-2.7-2.7c0.1-0.1,0.1-0.3,0.2-0.4h3.5c3.6,3.1,8.3,4.7,13.1,4.5c4.8-0.2,9.3-2.2,12.7-5.5l0,0l2.8-2.8
	c0.3-0.3,0.5-0.6,0.7-1c0.2-0.4,0.2-0.8,0.2-1.1s-0.1-0.8-0.2-1.1c-0.2-0.4-0.4-0.7-0.7-1L50.8,34.4z M18.3,6.1
	c0.2-0.2,0.4-0.3,0.7-0.3s0.5,0.1,0.7,0.3l8.5,8.5c0.2,0.2,0.3,0.4,0.3,0.7s-0.1,0.5-0.3,0.7l-2.1,2.1l-9.9-9.9L18.3,6.1z M30,49
	h-3.5c-0.2,0-0.4,0.1-0.6,0.2c-0.2,0.1-0.3,0.3-0.4,0.5c-0.2,0.5-0.4,1-0.6,1.4c-0.1,0.2-0.1,0.4-0.1,0.6c0,0.2,0.1,0.4,0.3,0.6
	l2.5,2.5l-2.8,2.8l-2.5-2.5c-0.2-0.2-0.4-0.3-0.6-0.3c-0.2,0-0.4,0-0.6,0.1c-0.5,0.2-0.9,0.5-1.4,0.6c-0.2,0.1-0.4,0.2-0.5,0.4
	c-0.1,0.2-0.2,0.4-0.2,0.6V60h-4v-3.5c0-0.2-0.1-0.4-0.2-0.6c-0.1-0.2-0.3-0.3-0.5-0.4c-0.5-0.2-1-0.4-1.4-0.6
	c-0.2-0.1-0.4-0.1-0.6-0.1c-0.2,0-0.4,0.1-0.6,0.3l-2.5,2.5l-2.8-2.8l2.5-2.5C9,52.2,9.1,52,9.1,51.8s0-0.4-0.1-0.6
	c-0.2-0.5-0.4-0.9-0.6-1.4c-0.1-0.2-0.2-0.4-0.4-0.5C7.9,49.1,7.7,49,7.5,49H4v-4h3.5c0.2,0,0.4-0.1,0.6-0.2
	c0.2-0.1,0.3-0.3,0.4-0.5c0.2-0.5,0.4-1,0.6-1.4c0.1-0.2,0.1-0.4,0.1-0.6S9,41.8,8.8,41.7l-2.4-2.5l2.8-2.8l2.5,2.5
	c0.2,0.2,0.4,0.3,0.6,0.3c0.2,0,0.4,0,0.6-0.1c0.5-0.2,0.9-0.5,1.4-0.6c0.2-0.1,0.4-0.2,0.5-0.4c0.1-0.2,0.2-0.4,0.2-0.6V34h4v3.5
	c0,0.2,0.1,0.4,0.2,0.6c0.1,0.2,0.3,0.3,0.5,0.4c0.5,0.2,1,0.4,1.4,0.6c0.2,0.1,0.4,0.1,0.6,0.1c0.2,0,0.4-0.1,0.6-0.3l2.5-2.5
	l2.8,2.8l-2.5,2.5c-0.2,0.2-0.3,0.4-0.3,0.6c0,0.2,0,0.4,0.1,0.6c0.2,0.5,0.4,0.9,0.6,1.4c0.1,0.2,0.2,0.4,0.4,0.5
	c0.2,0.1,0.4,0.2,0.6,0.2H30V49z M32,49.5V44c0-0.3-0.1-0.5-0.3-0.7S31.3,43,31,43h-3.8c-0.1-0.1-0.1-0.3-0.2-0.4l2.7-2.7
	c0.2-0.2,0.3-0.4,0.3-0.7c0-0.3-0.1-0.5-0.3-0.7l-4.2-4.2C25.3,34.1,25,34,24.8,34c-0.3,0-0.5,0.1-0.7,0.3l-2.7,2.7
	c-0.1-0.1-0.3-0.1-0.4-0.2V33c0-0.3-0.1-0.5-0.3-0.7S20.3,32,20,32h-5.5c-2.7-3.1-4.1-7.1-4.1-11.2c0-4.1,1.6-8,4.3-11.1l9.9,9.9
	l-0.7,0.7c-0.7,0.6-1.2,1.4-1.5,2.3c-0.4,0.8-0.5,1.8-0.5,2.7c0,0.9,0.2,1.8,0.5,2.7c0.4,0.8,0.9,1.6,1.5,2.3l9.9,9.9
	c0.6,0.7,1.4,1.2,2.3,1.5c0.8,0.4,1.8,0.5,2.7,0.5c0.9,0,1.8-0.2,2.7-0.5c0.8-0.4,1.6-0.9,2.3-1.5l0.7-0.7l9.9,9.9
	c-3.1,2.7-7,4.2-11.1,4.3C39.1,53.6,35.1,52.1,32,49.5z M57.9,45.7l-2.1,2.1l-9.9-9.9l2.1-2.1c0.2-0.2,0.4-0.3,0.7-0.3
	c0.3,0,0.5,0.1,0.7,0.3l8.5,8.5c0.2,0.2,0.3,0.4,0.3,0.7S58.1,45.5,57.9,45.7L57.9,45.7z"/>
<path class="st0" d="M17,42c-1,0-2,0.3-2.8,0.8c-0.8,0.5-1.5,1.3-1.8,2.2C12,46,11.9,47,12.1,48c0.2,1,0.7,1.9,1.4,2.6
	c0.7,0.7,1.6,1.2,2.6,1.4c1,0.2,2,0.1,2.9-0.3c0.9-0.4,1.7-1,2.2-1.8C21.7,49,22,48,22,47c0-1.3-0.5-2.6-1.5-3.5
	C19.6,42.5,18.3,42,17,42L17,42z M17,50c-0.6,0-1.2-0.2-1.7-0.5c-0.5-0.3-0.9-0.8-1.1-1.3c-0.2-0.5-0.3-1.2-0.2-1.7
	c0.1-0.6,0.4-1.1,0.8-1.5c0.4-0.4,1-0.7,1.5-0.8c0.6-0.1,1.2-0.1,1.7,0.2c0.5,0.2,1,0.6,1.3,1.1c0.3,0.5,0.5,1.1,0.5,1.7
	c0,0.8-0.3,1.6-0.9,2.1C18.6,49.7,17.8,50,17,50L17,50z"/>
<path class="st0" d="M36.1,2.3c-0.3,0-0.5,0-0.7,0.2C35.2,2.6,35,2.9,35,3.1c0,0.3,0,0.5,0.2,0.7c0.2,0.2,0.4,0.4,0.7,0.4
	c6,0.8,11.6,3.6,15.9,7.9c4.3,4.3,7.1,9.9,7.9,15.9c0,0.2,0.2,0.5,0.3,0.6c0.2,0.2,0.4,0.2,0.7,0.2c0,0,0.1,0,0.1,0
	c0.1,0,0.3-0.1,0.4-0.1s0.2-0.2,0.3-0.3c0.1-0.1,0.1-0.2,0.2-0.4c0-0.1,0-0.3,0-0.4c-0.9-6.5-3.9-12.5-8.5-17.1
	C48.6,6.2,42.6,3.2,36.1,2.3L36.1,2.3z"/>
<path class="st0" d="M35.8,10.3c4.4,0.8,8.5,2.9,11.7,6.1c3.2,3.2,5.3,7.3,6.1,11.7c0,0.2,0.2,0.4,0.3,0.6c0.2,0.2,0.4,0.2,0.6,0.2
	c0.1,0,0.1,0,0.2,0c0.3,0,0.5-0.2,0.6-0.4c0.2-0.2,0.2-0.5,0.2-0.7C54.8,23,52.4,18.5,49,15c-3.5-3.5-7.9-5.8-12.8-6.7
	c-0.1,0-0.3,0-0.4,0c-0.1,0-0.2,0.1-0.4,0.2c-0.1,0.1-0.2,0.2-0.3,0.3C35.1,8.9,35,9.1,35,9.2c0,0.1,0,0.3,0,0.4
	c0,0.1,0.1,0.2,0.2,0.4c0.1,0.1,0.2,0.2,0.3,0.3C35.6,10.3,35.7,10.3,35.8,10.3L35.8,10.3z"/>
<path class="st0" d="M35.8,16.5c2.9,0.7,5.5,2.2,7.5,4.3c2.1,2.1,3.5,4.7,4.3,7.5c0,0.1,0.1,0.3,0.2,0.4c0.1,0.1,0.2,0.2,0.3,0.3
	c0.1,0.1,0.2,0.1,0.4,0.1c0.1,0,0.3,0,0.4,0c0.1,0,0.3-0.1,0.4-0.2c0.1-0.1,0.2-0.2,0.3-0.3c0.1-0.1,0.1-0.2,0.1-0.4
	c0-0.1,0-0.3,0-0.4c-0.8-3.2-2.4-6.1-4.8-8.5c-2.3-2.3-5.3-4-8.5-4.8c-0.1,0-0.3,0-0.4,0c-0.1,0-0.3,0.1-0.4,0.1
	c-0.1,0.1-0.2,0.2-0.3,0.3C35.1,15,35,15.1,35,15.2c0,0.1,0,0.3,0,0.4c0,0.1,0.1,0.3,0.1,0.4c0.1,0.1,0.2,0.2,0.3,0.3
	C35.5,16.4,35.6,16.4,35.8,16.5L35.8,16.5z"/>
<path class="st0" d="M38,30c0.8,0,1.6-0.2,2.2-0.7c0.7-0.4,1.2-1.1,1.5-1.8c0.3-0.7,0.4-1.5,0.2-2.3c-0.2-0.8-0.5-1.5-1.1-2
	s-1.3-0.9-2-1.1c-0.8-0.2-1.6-0.1-2.3,0.2c-0.7,0.3-1.4,0.8-1.8,1.5C34.2,24.4,34,25.2,34,26c0,1.1,0.4,2.1,1.2,2.8
	C35.9,29.6,36.9,30,38,30z M38,24c0.4,0,0.8,0.1,1.1,0.3c0.3,0.2,0.6,0.5,0.7,0.9C40,25.6,40,26,40,26.4c-0.1,0.4-0.3,0.7-0.5,1
	s-0.6,0.5-1,0.5c-0.4,0.1-0.8,0-1.2-0.1c-0.4-0.2-0.7-0.4-0.9-0.7C36.1,26.8,36,26.4,36,26c0-0.5,0.2-1,0.6-1.4
	C37,24.2,37.5,24,38,24z"/>
</svg>
