<?xml version="1.0" encoding="utf-8"?>
<!-- Generator: Adobe Illustrator 26.0.3, SVG Export Plug-In . SVG Version: 6.00 Build 0)  -->
<svg version="1.1" id="圖層_1" xmlns="http://www.w3.org/2000/svg" xmlns:xlink="http://www.w3.org/1999/xlink" x="0px" y="0px"
	 viewBox="0 0 129 102" style="enable-background:new 0 0 129 102;" xml:space="preserve">
<style type="text/css">
	.st0{fill:none;stroke:#231815;stroke-width:2.5;stroke-miterlimit:10;}
	.st1{fill:#231815;}
</style>
<g>
	<path class="st0" d="M63.9,48.1v-3.6c0-1.6-1.3-2.9-3-2.9h-12c-1.6,0-3,1.3-3,2.9v13.7c0,1.6,1.3,2.9,3,2.9h1.5l0,1V79"/>
	<circle class="st0" cx="54.9" cy="29.6" r="6"/>
	<circle class="st0" cx="77.7" cy="63.9" r="13.7"/>
	<g>
		<path class="st1" d="M78.7,74H77v-2.3c-2,0-3.8-0.3-5.2-1v-2.3c0.6,0.4,1.4,0.7,2.5,1c1.1,0.3,2,0.4,2.7,0.4v-5.1
			c-2.1-0.7-3.5-1.4-4.3-2.1C72,61.8,71.6,61,71.6,60c0-1.1,0.5-2,1.5-2.8c1-0.8,2.3-1.3,3.9-1.4v-2h1.7v2c1.9,0,3.3,0.3,4.2,0.7
			v2.3c-1.1-0.6-2.5-0.9-4.2-1v5.3c2,0.7,3.4,1.3,4.2,2s1.3,1.5,1.3,2.5c0,1.1-0.5,2-1.5,2.8c-1,0.7-2.3,1.2-4,1.4V74z M77,57.6
			c-1.6,0.3-2.4,1-2.4,2.1c0,0.5,0.2,1,0.5,1.3c0.3,0.4,1,0.7,2,1.2V57.6z M78.7,69.6c1.7-0.3,2.6-1,2.6-2.1c0-0.9-0.9-1.7-2.6-2.4
			V69.6z"/>
	</g>
	<path class="st0" d="M61,41.6c1.6,0,3,1.3,3,2.9v13.7c0,1.6-1.3,2.9-3,2.9h-1.5l0,1V79"/>
</g>
</svg>
