<?xml version="1.0" encoding="utf-8"?>
<!-- Generator: Adobe Illustrator 26.0.3, SVG Export Plug-In . SVG Version: 6.00 Build 0)  -->
<svg version="1.1" xmlns="http://www.w3.org/2000/svg" xmlns:xlink="http://www.w3.org/1999/xlink" x="0px" y="0px"
	 viewBox="0 0 3000 2000" style="enable-background:new 0 0 3000 2000;" xml:space="preserve">
<style type="text/css">
	.st0{fill:#D2D2D2;}
	.st1{fill:#FFBE9D;}
	.st2{fill:#6367EA;}
	.st3{fill:#FFFFFF;}
	.st4{fill:#FF5970;}
	.st5{opacity:0.6;}
	.st6{opacity:0.2;}
	.st7{fill:#FFD966;}
	.st8{fill:#EB996F;}
	.st9{fill:#F4F4F4;}
</style>
<g id="BACKGROUND">
</g>
<g id="OBJECTS">
	<g>
		<g>
			<g>
				<path class="st0" d="M1928.7,1821.7h-310.8v-114h310.8V1821.7z M1623,1816.6h300.5v-103.6H1623V1816.6z"/>
				<path class="st0" d="M2234.3,1821.7h-310.8v-114h310.8V1821.7z M1928.7,1816.6h300.5v-103.6h-300.5V1816.6z"/>
			</g>
			<g>
				<path class="st0" d="M1270.8,1567.9H959.9v-114h310.8V1567.9z M965.1,1562.7h300.5v-103.6H965.1V1562.7z"/>
			</g>
		</g>
		<g>
			<g>
				
					<ellipse transform="matrix(0.7071 -0.7071 0.7071 0.7071 -250.8856 402.6023)" class="st0" cx="360.5" cy="504.1" rx="180" ry="180"/>
				<polygon points="362.7,508.6 244.4,480.8 246.2,473.2 358.4,499.7 386.7,441.5 393.7,444.9 				"/>
			</g>
			<g>
				<rect x="857.5" y="358.2" transform="matrix(0.9612 -0.2759 0.2759 0.9612 -68.5683 262.0871)" width="79" height="33"/>
				<path d="M846.5,351.1l-13.3-46.3c-31.6-7-56.6-30.5-65.6-61.7c-13.4-46.7,13.7-95.6,60.4-109c46.7-13.4,95.6,13.7,109,60.4
					c8.9,31.1,0.2,64.3-22.9,87.1l13.3,46.3L846.5,351.1z M852.3,135.9c-7.6,0-15.2,1-22.8,3.2c-43.9,12.6-69.4,58.6-56.8,102.6
					c8.5,29.8,32.8,52.1,63.2,58.4l1.5,0.3l12.7,44.4l71-20.4L908.3,280l1.1-1.1c22.5-21.4,31.1-53.2,22.6-83l0,0
					C921.6,159.6,888.3,135.9,852.3,135.9z"/>
				<path d="M797.4,232c-7.3-20.4-3.6-37.8,11-52l3.6,3.7c-13.2,12.8-16.4,28-9.7,46.5L797.4,232z"/>
			</g>
			<g>
				<path d="M1021.7,944.5v-90.2c-24.5-6.9-41.4-29-41.4-54.7V679.1c0-31.3,25.5-56.8,56.8-56.8h272.5c31.3,0,56.8,25.5,56.8,56.8
					v120.5c0,31.3-25.5,56.8-56.8,56.8h-210.8L1021.7,944.5z M1037,628.5c-27.9,0-50.6,22.7-50.6,50.6v120.5
					c0,23.6,16.1,43.9,39,49.2l2.4,0.6v78.5l68-77.7h213.6c27.9,0,50.6-22.7,50.6-50.6V679.1c0-27.9-22.7-50.6-50.6-50.6H1037z"/>
				<g>
					<path d="M1078.1,770.2c-14.8,0-26.9-12.3-26.9-27.4c0-15.1,12.1-27.4,26.9-27.4s26.9,12.3,26.9,27.4
						C1105,757.9,1092.9,770.2,1078.1,770.2z M1078.1,721.6c-11.4,0-20.7,9.5-20.7,21.1c0,11.7,9.3,21.1,20.7,21.1
						c11.4,0,20.7-9.5,20.7-21.1C1098.8,731.1,1089.5,721.6,1078.1,721.6z"/>
					<path d="M1173.3,770.2c-14.8,0-26.9-12.3-26.9-27.4c0-15.1,12.1-27.4,26.9-27.4c14.8,0,26.9,12.3,26.9,27.4
						C1200.2,757.9,1188.1,770.2,1173.3,770.2z M1173.3,721.6c-11.4,0-20.7,9.5-20.7,21.1c0,11.7,9.3,21.1,20.7,21.1
						c11.4,0,20.7-9.5,20.7-21.1C1194,731.1,1184.7,721.6,1173.3,721.6z"/>
					<path d="M1268.4,770.2c-14.8,0-26.9-12.3-26.9-27.4c0-15.1,12.1-27.4,26.9-27.4c14.8,0,26.9,12.3,26.9,27.4
						C1295.3,757.9,1283.3,770.2,1268.4,770.2z M1268.4,721.6c-11.4,0-20.7,9.5-20.7,21.1c0,11.7,9.3,21.1,20.7,21.1
						c11.4,0,20.7-9.5,20.7-21.1C1289.1,731.1,1279.8,721.6,1268.4,721.6z"/>
				</g>
			</g>
			<g>
				<g>
					<path class="st1" d="M956.5,1418.5l141.4-134.4l85.2,84.2l-233.6,226.8c-40.4,39.2-105.3,37.3-143.3-4.3l0,0l36.1-160.4
						L956.5,1418.5z"/>
					<polygon class="st1" points="956.5,1418.5 857.2,1492.4 846.1,1365.9 939.6,1345.4 					"/>
					<g>
						
							<rect x="1033.3" y="1069.5" transform="matrix(0.7015 0.7127 -0.7127 0.7015 1201.6376 -453.7728)" class="st2" width="218.4" height="276.3"/>
						
							<rect x="1123.4" y="1148.4" transform="matrix(0.7015 0.7127 -0.7127 0.7015 1183.8762 -498.1288)" class="st3" width="126.3" height="31.6"/>
					</g>
					<g>
						<path class="st1" d="M1252.7,1318.2c-4.1,3.3-9.6,3.4-14,0.4c-3-2-5.3-5-7.6-7.8c-10.8-13.5-23.2-25.3-34.8-38
							c-6.4-7-12.7-18.4-5-26.7c9.4-10.2,29.2,6.7,36.1,12.7c10.2,8.8,19.8,19.8,26,31.7c2.9,5.6,5.8,12.5,4.5,18.9
							C1257.3,1312.9,1255.3,1316.1,1252.7,1318.2z"/>
						<path class="st1" d="M1227.4,1336.5c-0.2,0.1-0.3,0.3-0.4,0.4c-11.8,10.7-24-11.1-30.4-18.1c-8.7-9.4-17.3-18.7-25.9-28.2
							c-6.4-7-12.7-18.4-4.9-26.7c9.4-10.2,29.2,6.7,36.2,12.7c10.2,8.7,27.3,19.5,33.5,31.5
							C1238.9,1314.9,1242.3,1328.7,1227.4,1336.5z"/>
						<path class="st1" d="M1204.8,1358.6c-4.1,3.3-9.4,3.5-13.6,0.8c-2.9-1.9-5.1-4.6-7.2-7.3c-10.1-12.8-21.9-23.7-32.8-35.7
							c-6-6.6-11.8-17.4-4.1-25.6c9.4-10.1,28.2,5.7,34.9,11.3c9.7,8.2,24.4,10.2,30.1,21.6c2.7,5.3,6.6,15.3,5.2,21.6
							C1216.5,1348.5,1207.5,1356.5,1204.8,1358.6z"/>
						<path class="st1" d="M1196.3,1361.9c2.1-4.6,1.3-9.5-1.6-12.8c-2-2.3-4.9-3.2-7.2-5c-14.9-11.1-23.1-14.8-34.7-22.2
							c-6.4-4.1-16.2-7-21.7,2.1c-6.7,11,9.3,24.8,15,29.6c8.3,7.1,18.3,13.1,28.5,15.8c4.8,1.3,10.6,2.2,15.5-0.6
							C1192.7,1367.4,1194.9,1364.8,1196.3,1361.9z"/>
					</g>
					<rect x="900.2" y="1438.5" transform="matrix(0.7067 -0.7075 0.7075 0.7067 -744.93 1086.2711)" width="75.1" height="6.2"/>
					<path d="M1181.1,1373.7c-9-1.1-43.5-22.7-52.7-35.8l5.1-3.6c8.5,12.1,41.8,32.5,48.3,33.2L1181.1,1373.7z"/>
				</g>
				<g>
					<polygon class="st4" points="959.4,1997.9 379,1997.9 403.7,1762.6 414.6,1658.9 762,1643.8 880.4,1638.7 					"/>
					<g class="st5">
						<path class="st3" d="M945.3,1933.7c-14.3,3.3-30.3,4.8-48.1,4.1c-60-2.3-117.5-24.1-173.2-45.2c-31.4-11.9-63.8-24.2-96.5-33
							c-76-20.4-156.3-22.6-233.3-6.5l-0.4,4c76.8-16.2,156.8-14.2,232.7,6.2c32.5,8.7,64.9,21,96.1,32.8
							c56,21.2,113.8,43.1,174.4,45.5c18.2,0.7,34.5-0.8,49.1-4.2L945.3,1933.7z"/>
						<path class="st3" d="M853.2,1807.1c16.8,1.4,33.8-0.7,50.1-2.8c4.3-0.5,8.7-1.1,13.1-1.6l-0.8-3.8c-4.3,0.5-8.5,1-12.7,1.5
							c-16.2,2.1-32.9,4.2-49.3,2.8c-24.6-2.1-54-16.2-60.4-42.2c-5.3-22,7.9-44.1,23.3-56.2c17.3-13.7,39.2-19.7,60.4-24.2
							c4.1-0.9,8.2-1.5,12.2-2.3l-0.8-3.8c-4.1,0.8-8.1,1.4-12.2,2.3c-21.6,4.6-44,10.8-62,24.9c-16.4,12.9-30.4,36.6-24.6,60.2
							C796.2,1789.9,826.4,1804.8,853.2,1807.1z"/>
					</g>
					<polygon class="st6" points="762,1643.8 403.7,1762.6 414.6,1658.9 					"/>
					<rect x="664.6" y="1650.6" transform="matrix(0.994 -0.1089 0.1089 0.994 -183.8559 83.0018)" width="6.2" height="147.2"/>
				</g>
				<g>
					<path class="st7" d="M857.2,1492.4l23.2,146.3l-465.7,20.1l-54.1-438.7l69.2-130l198.9-26l210.1,42.1
						c28.9,5.8,51.9,28,58.5,56.8l42.3,182.5l-93.4,20.5L857.2,1492.4z"/>
					
						<rect x="837.2" y="1232.5" transform="matrix(0.9962 -8.732737e-02 8.732737e-02 0.9962 -110.2571 78.3457)" width="6.2" height="133.6"/>
					
						<rect x="564.4" y="1641.7" transform="matrix(0.9993 -3.824751e-02 3.824751e-02 0.9993 -62.3793 28.8347)" width="316.1" height="6.2"/>
				</g>
				<g>
					<path class="st7" d="M386.5,1304.7l43.2-214.6l-43.8,5.7c-48.2,6.3-92,31.1-122.2,69.1l-107.6,135.3l130.1,103.2L386.5,1304.7z
						"/>
					<path class="st1" d="M466.9,1655l-55.6,1.5l63.2-30.1c0,0,29.3,35.3,40.5,32.3c11.3-3-3-38.3-26.3-66.2l-28.6-17.9
						c-6.8-4.2-15.3-4.5-22.4-0.7l-97.9,52.5l-136.8-141.4l83.1-81.8l-130.1-103.2L63.3,1417c-30.4,36.6-31.2,89.6-1.9,127.1
						c66.5,85,138,158.5,245.4,196.7c12.5,4.5,26.2,4.4,38.8,0c16.1-5.7,39-13.4,52.9-16.5c0,0,33.6,7.5,48.9,12
						c27.7,8.2,10.5-17.3-18.8-38.4l27.9-7.5c0,0,45.1,27.8,57.9,25.5C527.1,1713.7,500,1677.6,466.9,1655z"/>
					<path d="M509.9,1626.7l-15.2-19.8c-5.7-7.4-15.3-10.6-24.3-8.2l-62.4,17.1l-1.6-5.8l62.4-17.1c11.4-3.1,23.5,0.9,30.7,10.3
						l15.2,19.8L509.9,1626.7z"/>
					<path d="M454.6,1724.3l-22.1-19.1c-3.3-2.9-7.4-4.7-11.8-5.2l-42-4.9l0.7-6l42,4.9c5.6,0.7,10.8,2.9,15.1,6.6l22.1,19.1
						L454.6,1724.3z"/>
					
						<rect x="174.3" y="1452.7" transform="matrix(0.2313 -0.9729 0.9729 0.2313 -1302.5291 1309.5793)" width="6.2" height="52.7"/>
					<path d="M505.4,1696.1l-32.9-31.6c-4.3-4.1-10.2-6.4-16-6.2l-45,1.2l-0.2-6l45-1.2c7.5-0.3,14.9,2.7,20.4,7.9l32.9,31.6
						L505.4,1696.1z"/>
					<rect x="315.4" y="1308.3" transform="matrix(0.718 -0.696 0.696 0.718 -807.0612 630.7843)" width="119.1" height="6.2"/>
				</g>
				<g>
					<path d="M675.1,913.6c114.7,7.2,92.1-140.8-38.2-121.7c0,0-26.7-48.1-100.8-13C470.3,810,412,1002.1,412,1002.1l140.8,27.8
						L675.1,913.6z"/>
					<path class="st1" d="M656.4,953.7V1086c0,31.4-25.4,56.9-56.8,56.9c-31.4,0-56.9-25.5-56.9-56.9V953.7H656.4z"/>
					<path class="st8" d="M656.4,1014.1v52.4c-40.6-9.7-68.5-40.7-90.9-80.7L656.4,1014.1z"/>
					<path d="M666.6,901.4c39.6,24,78.3,91.4,73,146.7l-103.2-15.1L666.6,901.4z"/>
					<path class="st1" d="M699.2,963.9c-1.2,21-6,38.9-17.9,45.5c-49.1,27.6-129-24.5-129-24.5l-9.6-61.8l-10.1-71l66.2-27.1
						c33.3-8.9,59.5-2.2,78.6,18.3c10.6,11.5,13.2,24.5,15.6,39.9c2,12.7,4.6,30.7,5.8,49.2C699.5,943.1,699.7,953.8,699.2,963.9z"
						/>
					<path d="M556.6,935.4c5.6-60.8,73.8-93.8,122.4-92c-34.7-39.1-71.4-34.1-99.9-39.1l-77.3,47.8L556.6,935.4z"/>
					
						<ellipse transform="matrix(0.8361 -0.5486 0.5486 0.8361 -422.6703 449.298)" class="st1" cx="540.5" cy="932" rx="27.4" ry="33.9"/>
					<path d="M544.7,938.1c-2.1-9.8-7.5-15-16.9-16.5l0.8-5.1c11.5,1.8,18.6,8.7,21.2,20.5L544.7,938.1z"/>
					<g>
						<path d="M632.7,919.8c0.8,4.6-1.7,8.8-5.5,9.5c-3.8,0.6-7.5-2.6-8.3-7.1c-0.8-4.6,1.7-8.8,5.5-9.5
							C628.2,912,632,915.2,632.7,919.8z"/>
						<path d="M681.3,916.4c0.9,4.6-1.4,8.9-5.2,9.6c-3.8,0.7-7.6-2.4-8.5-6.9c-0.9-4.6,1.4-8.9,5.2-9.6
							C676.6,908.8,680.4,911.9,681.3,916.4z"/>
						<path d="M656.1,956.8l-0.9-5.1c0.9-0.2,1.9-0.3,2.9-0.4c5.4-0.6,6.4-1.2,6.2-3.8c-0.2-3.3-3.1-7.2-5.5-10.3
							c-0.5-0.7-1-1.4-1.5-2l4.2-3c0.4,0.6,0.9,1.2,1.4,1.9c2.8,3.7,6.2,8.2,6.5,13.1c0.5,8.1-6.6,8.9-10.8,9.3
							C657.7,956.5,656.9,956.6,656.1,956.8z"/>
						<path class="st9" d="M647.5,964.9c5.3,6.1,6.2,13.9,2.1,17.5c-4.1,3.6-11.7,1.5-17-4.6c-5.3-6.1-6.2-13.9-2.1-17.5
							C634.6,956.8,642.2,958.8,647.5,964.9z"/>
						<path d="M636.3,890.6c0.9,5.2-3,5.3-15.5,9.3c-9,2.9-16.2,4.6-17.3,1.2c-1.1-3.3,5.4-8.4,14.4-11.3
							C627.1,886.9,635.1,883.2,636.3,890.6z"/>
						<path d="M664,889.5c-0.8,5,2.9,5.2,14.6,9.2c8.5,2.9,15.2,4.6,16.2,1.4c1-3.2-5.2-8.2-13.7-11.1S665.1,882.4,664,889.5z"/>
					</g>
				</g>
			</g>
		</g>
		<g>
			<g>
				<path d="M1794.5,957c-139.8,0-253.5-113.7-253.5-253.5S1654.7,450,1794.5,450c139.8,0,253.5,113.7,253.5,253.5
					S1934.3,957,1794.5,957z M1794.5,456.2c-136.4,0-247.3,110.9-247.3,247.3c0,136.4,110.9,247.3,247.3,247.3
					s247.3-110.9,247.3-247.3C2041.8,567.1,1930.8,456.2,1794.5,456.2z"/>
				<path class="st4" d="M1755.1,755.9l-0.4-11.4c-1.3-22.5,6.1-45.4,26-69.2c14.1-16.7,25.5-30.8,25.5-45.8
					c0-15.4-10.1-25.6-32.1-26.4c-14.5,0-32.2,5.3-43.6,13.2l-15-48c15.9-9.3,42.3-18.1,73.6-18.1c58.2,0,84.6,32.2,84.6,68.7
					c0,33.5-20.7,55.5-37.4,74c-16.3,18.1-22.9,35.2-22.5,55.1v7.9H1755.1z M1743.6,816.7c0-23.4,16.3-40.1,39.2-40.1
					c23.8,0,39.2,16.7,39.6,40.1c0,22.9-15.9,40.1-39.6,40.1C1759.5,856.8,1743.6,839.6,1743.6,816.7z"/>
			</g>
			<g>
				<g>
					<path class="st0" d="M2770.7,279.2v-41.4h-41.5c-3.6-25.6-13.6-49.1-28.5-68.9l29.3-29.3l-29.3-29.3l-29.3,29.3
						c-19.7-14.9-43.2-24.9-68.9-28.5V69.6h-41.4v41.5c-25.6,3.6-49.1,13.6-68.9,28.5l-29.3-29.3l-29.3,29.3l29.3,29.3
						c-14.9,19.7-24.9,43.2-28.5,68.9H2393v41.4h41.5c3.6,25.6,13.6,49.1,28.5,68.9l-29.3,29.3l29.3,29.3l29.3-29.3
						c19.7,14.9,43.2,24.9,68.9,28.5v41.5h41.4v-41.5c25.6-3.6,49.1-13.6,68.9-28.5l29.3,29.3l29.3-29.3l-29.3-29.3
						c14.9-19.7,24.9-43.2,28.5-68.9H2770.7z"/>
					<circle class="st9" cx="2581.9" cy="258.5" r="94"/>
				</g>
				<g>
					<path class="st0" d="M2940.5,598.4v-27.1h-27.2c-2.3-16.8-8.9-32.2-18.7-45.1l19.2-19.2l-19.2-19.2l-19.2,19.2
						c-12.9-9.7-28.3-16.3-45.1-18.7v-27.2h-27.1v27.2c-16.8,2.3-32.2,8.9-45.1,18.7l-19.2-19.2l-19.2,19.2l19.2,19.2
						c-9.7,12.9-16.3,28.3-18.7,45.1h-27.2v27.1h27.2c2.3,16.8,8.9,32.2,18.7,45.1l-19.2,19.2l19.2,19.2l19.2-19.2
						c12.9,9.7,28.3,16.3,45.1,18.7v27.2h27.1v-27.2c16.8-2.3,32.2-8.9,45.1-18.7l19.2,19.2l19.2-19.2l-19.2-19.2
						c9.7-12.9,16.3-28.3,18.7-45.1H2940.5z"/>
					
						<ellipse transform="matrix(0.1602 -0.9871 0.9871 0.1602 1788.321 3271.6814)" class="st9" cx="2816.9" cy="584.9" rx="61.6" ry="61.6"/>
				</g>
			</g>
			<path d="M2280.9,526.7c-7.8-16.6-9.2-36-4-53.6c-18.6-2.2-40-14.1-44.5-35.6c-0.4-1.8-0.6-3.6-0.7-5.4
				c-8.6,1.2-17.5,1.6-26.2-0.6c-12.3-3.1-22-11.3-25.2-21.5c-5.4-17,6.9-33.5,18.2-44.3c30.1-28.9,69.4-48.5,110.6-55.1l1,6.1
				c-40,6.4-78.1,25.4-107.3,53.5c-10,9.6-21,24-16.6,38c3.1,9.8,12.7,15.4,20.8,17.4c8.1,2,16.6,1.5,24.9,0.3
				c1.5-16.3,12.6-31.1,22.6-41.4c17.6-18.1,39.1-32.9,62.2-43c7.4-3.2,16.2-6.5,25.4-6.1c10.3,0.4,19.4,5.8,23.2,13.7
				c3.8,7.9,2.4,18-3.5,26.4c-5.2,7.4-12.9,12.5-19.7,16.6c-31.6,19.3-67.6,32.8-104.1,39.1c0,0-0.1,0-0.1,0
				c0.1,1.7,0.3,3.4,0.6,5.1c3.7,18.1,23.1,29.2,40.3,30.8c0.1,0,0.1,0,0.2,0c0.5-1.2,1-2.4,1.5-3.5c9.1-19.8,27-35.1,48-41
				c8.8-2.4,18.5-1.6,24.8,2.1c4,2.4,6.6,5.9,7.6,10.2c2.5,11-6.7,21.2-24.6,27.3c-16.2,5.6-34.5,11.8-53.1,11.4
				c-5.3,16.4-4.2,34.8,3.2,50.5L2280.9,526.7z M2338.8,427.4c-2.8,0-5.8,0.4-8.6,1.2c-19.2,5.4-35.7,19.4-44,37.6
				c-0.2,0.4-0.4,0.8-0.5,1.2c16.8-0.1,33.7-5.9,48.7-11.1c5.5-1.9,23.1-8.9,20.5-20.1c-0.6-2.6-2.2-4.7-4.7-6.2
				C2347.2,428.3,2343.1,427.4,2338.8,427.4z M2340.6,341.6c-7.6,0-15.1,2.8-21.6,5.6c-22.4,9.7-43.2,24.1-60.2,41.6
				c-8.9,9.2-18.7,22.1-20.7,36c35.3-6.2,70.1-19.4,100.7-38c6.2-3.8,13.3-8.4,17.8-14.9c4.6-6.5,5.7-14.4,3-20.2
				c-2.8-5.9-9.8-9.9-17.9-10.2C2341.4,341.6,2341,341.6,2340.6,341.6z"/>
			<g>
				<g>
					<polygon class="st7" points="2738.6,1997.9 2129.1,1997.9 2120.5,1635.2 2178.6,1625.7 2598.2,1556.8 2649.7,1718.6 					"/>
					<polygon class="st6" points="2649.7,1718.6 2178.6,1625.7 2598.2,1556.8 					"/>
					<polygon points="2434.8,2000.9 2399.1,1838.4 2292.7,1810.8 2294.3,1804.8 2404.4,1833.3 2440.9,1999.6 					"/>
				</g>
				<g>
					<path class="st2" d="M2112.3,1194.6l-34.1,394.1c-2.1,24.8,17.4,46.1,42.3,46l471.1-1.3c22.9-0.1,41.6-18.4,42.2-41.3
						l0.3-505.9l-225.6-7.5l-215.5,11L2112.3,1194.6z"/>
					<g>
						<path class="st1" d="M2600.8,1487.6c-46.6,25.6-100.2,45.8-91.7,60.2c8.5,14.4,93.2-21.1,93.2-21.1s-102.5,57.5-94.7,72.2
							c12.9,24.4,106.8-40.6,106.8-40.6s-73.4,58.4-64.7,70.7c15.8,22.2,76.7-39.1,76.7-39.1c-10.5,10.5-36.6,42.8-27.6,49.7
							c13.1,10,89.7-53.2,89.7-53.2l43-32.8l-94.2-91.7L2600.8,1487.6z"/>
						<path class="st1" d="M1879.5,1123.2c-11.1-17.3-29.7-28.5-50.2-30.2c-19.9-1.6-43.8-2.6-57.1,0.6
							c-25.6,6-108.8-21.5-112.9-12.7c-12.8,27.7,61.8,63.8,103.9,77.4l29.7,67.2l108-69L1879.5,1123.2z"/>
						<path class="st2" d="M2879.2,1221.1l-234.6-194.8c-17.1-16.4-39.1-26.7-62.7-29.2l-226.3-24.2l-201.2,33.5
							c-40.3,6.7-75.8,30.5-97.3,65.3l-103,167.8l-53.3-83l-108,69c23.9,53.9,47.7,107.8,71.6,161.7c7.6,17.2,16,34.6,27.7,49.5
							c9.8,12.3,22.8,23.1,38.4,26.5c28,6.2,68.1-8.1,84.7-31.6l173.2-245.4l335.9-38l225.4,189.1l-112.6,124.5l94.2,91.7
							c27.6-23.8,170.3-129.7,191.1-177.4C2946,1322.6,2923.7,1256.6,2879.2,1221.1z"/>
						<g>
							<path d="M2596.6,1631.9c-0.5-2.4-0.9-16.6,39.7-57.1l4.2,4.2c-38.6,38.6-38,51.7-38,51.9L2596.6,1631.9z"/>
							<path d="M2552.6,1629.5l-5.9-1c3.2-18.7,19.3-31.7,46-53.2c6.2-5,13.1-10.6,20.5-16.8l3.9,4.6c-7.5,6.2-14.3,11.8-20.6,16.8
								C2570.9,1600.5,2555.4,1613,2552.6,1629.5z"/>
							<path d="M2506.4,1598.5c3.5-10.2,11.5-17.3,19-24.1c7.7-6.7,16-12.4,24.3-18.2c8.4-5.6,16.9-10.9,25.6-16
								c8.7-5,17.4-10,26.3-14.6l1.2,2c-8.1,6-16.5,11.5-24.8,17.1l-25.1,16.5c-8.4,5.4-16.5,11.2-24.4,17.1c-4,3-7.7,6.2-11.2,9.6
								c-3.4,3.4-6.8,7.1-8.8,11.3L2506.4,1598.5z"/>
						</g>
					</g>
					<g class="st5">
						<g>
							<path class="st3" d="M2899.1,1240.8c-0.8-1-1.7-2-2.5-3c-21.9,26.1-35.8,58.9-38.3,92.9c-2.4,33.3,6.4,67.2,23.7,95.8
								c1-0.9,1.9-1.9,2.8-2.8c-16.6-27.7-25-60.4-22.7-92.7C2864.5,1298.1,2877.9,1266.2,2899.1,1240.8z"/>
						</g>
						<g>
							<path class="st3" d="M2012.3,1435.5c-11.9-13.1-25.7-24.5-41-33.6c-33.4-20-72.9-28.5-111.5-25.1c0.6,1.2,1.1,2.5,1.7,3.7
								c37.3-3,75.5,5.4,107.8,24.7c15,9,28.6,20.2,40.3,33.1C2010.6,1437.4,2011.5,1436.5,2012.3,1435.5z"/>
						</g>
						<g>
							<path class="st3" d="M2583.5,1064.3c13.4,6.9,28.3,10.1,43.2,10.1c19.8,0,39.7-5.7,56.6-16.1l-3.1-2.6
								c-28.3,17-65.3,20.4-94.8,5.2c-26.1-13.5-43.8-40-49.3-68.7l-4-0.4C2537.4,1022,2555.9,1050.1,2583.5,1064.3z"/>
						</g>
						<g>
							<path class="st3" d="M2168.7,1004c-3.5,23.7-14.4,46.3-32.1,62.4c-24.1,22-59.2,30.5-91.3,24.5l-2.1,3.5
								c7.3,1.5,14.8,2.2,22.3,2.2c26.9,0,53.9-9.3,73.8-27.4c18.6-17,30-40.9,33.4-66L2168.7,1004z"/>
						</g>
						<g>
							<path class="st3" d="M2112.7,1277.9l-3.1-2.4c33.6-43.8,86.4-73.6,141.3-79.7c54.9-6.1,113,11.2,155.4,46.5l-2.5,3
								c-41.7-34.6-98.7-51.7-152.5-45.6C2197.6,1205.7,2145.7,1234.9,2112.7,1277.9z"/>
						</g>
						<g>
							<path class="st3" d="M2419.8,1299.5c-54.8,0-110.2-19.9-151.8-55.3l2.5-3c46.6,39.6,110.7,59.5,171.5,53.2
								c60.8-6.2,119.5-38.7,157.1-87l3.1,2.4c-38.2,49-98,82.1-159.8,88.4C2434.9,1299.1,2427.3,1299.5,2419.8,1299.5z"/>
						</g>
					</g>
					<g>
						
							<rect x="1966.8" y="1234.8" transform="matrix(0.8361 -0.5486 0.5486 0.8361 -370.2836 1287.9276)" width="6.2" height="57.6"/>
						
							<rect x="2040" y="1259.1" transform="matrix(6.834953e-02 -0.9977 0.9977 6.834953e-02 704.3671 3278.6365)" width="135.4" height="6.2"/>
						<rect x="2606.2" y="1167.4" transform="matrix(0.6441 -0.7649 0.7649 0.6441 -1.2829 2428.4653)" width="6.2" height="96.5"/>
						<path d="M2361.6,1106.8c-1.2,0-2.5,0-3.7-0.1c-30.7-1.1-57.9-14.9-71-36.1l5.3-3.3c12,19.4,37.3,32.1,65.9,33.1
							c30.6,1.1,57.3-11.1,73.3-33.3l5,3.6C2420,1093.6,2392.3,1106.8,2361.6,1106.8z"/>
						<rect x="2749.4" y="1329.5" transform="matrix(0.988 -0.1546 0.1546 0.988 -172.6217 445.8962)" width="61.2" height="6.2"/>
					</g>
				</g>
				<g>
					<path class="st1" d="M2422.2,869.1l-0.1,122.8c0,35.8-29,64.9-64.9,64.9h-1.5c-35.8,0-64.9-29.1-64.9-64.9V869.1H2422.2z"/>
					<path class="st8" d="M2393.4,916.4c-27.3,38.8-65.8,61.5-102.5,66.3v-66.1l68.4-20.5L2393.4,916.4z"/>
					<path class="st1" d="M2429.8,760.2l-10.8,75.4l-18,82.6c0,0-100.5,41.3-129.2,9c-7.1-8-11.3-21.6-13.7-37.5
						c-1.8-11.5-2.5-24.3-2.6-37.1c-0.4-40.8,5.5-81.6,5.5-81.6L2429.8,760.2z"/>
					<path d="M2414.6,838c1.3-35.3-15.5-58.5-47-71.9c-86.2,50.7-141.4,42.7-158.3-37.3c0,0,44.2,5.5,91.3-28.3
						c47-33.9,74.7-33.9,109.9,10.4c63.6,17.3,74,71.9,31.1,125.8L2414.6,838z"/>
					
						<ellipse transform="matrix(0.7821 -0.6232 0.6232 0.7821 1.288 1691.464)" class="st1" cx="2419.1" cy="843.9" rx="37.1" ry="29.4"/>
					<g>
						<path d="M2321.2,829.5c-0.3,4.5,2.5,8.3,6.2,8.5c3.7,0.2,7-3.2,7.2-7.7c0.3-4.5-2.5-8.3-6.2-8.5S2321.5,825,2321.2,829.5z"/>
						<path d="M2273.1,834.4c-0.4,4.5,2.3,8.4,6,8.7c3.7,0.3,7-3,7.4-7.5s-2.3-8.4-6-8.7C2276.8,826.5,2273.5,829.9,2273.1,834.4z"
							/>
						<path d="M2302.6,869.8c-0.8-0.1-1.6-0.1-2.5-0.1c-4.1,0-10.9-0.1-11.2-7.8c-0.2-4.7,2.7-9.4,5-13.2l1.2-1.9l4.1,2.4l-1.2,2
							c-2,3.2-4.4,7.3-4.3,10.5c0.1,2.6,1.1,3.1,6.5,3.2c1,0,1.9,0,2.8,0.1L2302.6,869.8z"/>
						<path d="M2315.6,811.7c1.8,4.8,5.1,2.9,17.4,0.2c9-2,15.7-4.1,15-7.4c-0.7-3.3-8.6-4.4-17.5-2.4
							C2321.5,804.1,2313,805,2315.6,811.7z"/>
						<path d="M2292.2,815.6c-1.2,4.8-4.5,3.6-16.4,2.9c-8.7-0.5-15.3-1.4-15-4.7c0.3-3.2,7.6-5.5,16.3-5
							C2285.8,809.3,2293.9,808.8,2292.2,815.6z"/>
						<path d="M2302.7,900.4c-1.7-5.9-1-10.9,2-14.8c6-7.8,19.3-9.2,29.5-9l-0.1,4.8c-12.8-0.2-21.9,2.3-25.6,7.2
							c-2.1,2.7-2.5,6.2-1.2,10.6L2302.7,900.4z"/>
					</g>
					<path d="M2414.3,853.7c-1.3-15.3,5.3-24.6,19.8-27.5l1,4.7c-12.2,2.5-17.1,9.4-16,22.5L2414.3,853.7z"/>
				</g>
			</g>
		</g>
	</g>
</g>
</svg>
